<svg viewBox="0 0 24 24" fill="none" xmlns="http://www.w3.org/2000/svg">
    <path d="M12 2C11.4696 2 10.9609 2.21071 10.5858 2.58579C10.2107 2.96086 10 3.46957 10 4V6H4C3.46957 6 2.96086 6.21071 2.58579 6.58579C2.21071 6.96086 2 7.46957 2 8V20C2 20.5304 2.21071 21.0391 2.58579 21.4142C2.96086 21.7893 3.46957 22 4 22H20C20.5304 22 21.0391 21.7893 21.4142 21.4142C21.7893 21.0391 22 20.5304 22 20V8C22 7.46957 21.7893 6.96086 21.4142 6.58579C21.0391 6.21071 20.5304 6 20 6H14V4C14 3.46957 13.7893 2.96086 13.4142 2.58579C13.0391 2.21071 12.5304 2 12 2ZM4 8H10V20H4V8ZM14 8H20V20H14V8ZM12 8H10V6H12V8Z" fill="#00FF99"/>
  </svg>
  